{"title":"Fast And Furious 6 2013 EXTENDED BRRiP XViD UNiQUE","uid":8873075,"size":1540491603,"categoryP":"video","categoryS":"movies","magnet":"?xt=urn:btih:bbc92bf53d7c3792e65995455e2f431bb5c9c38e&amp;dn=Fast+And+Furious+6+2013+EXTENDED+BRRiP+XViD+UNiQUE&amp;tr=udp%3A%2F%2Ftracker.openbittorrent.com%3A80&amp;tr=udp%3A%2F%2Fopen.demonii.com%3A1337&amp;tr=udp%3A%2F%2Ftracker.coppersurfer.tk%3A6969&amp;tr=udp%3A%2F%2Fexodus.desync.com%3A6969","seeders":2,"leechers":1,"uploader":"xxxlavalxxx","files":-1,"time":1378121590,"description":"\n &lt;a href=&quot;\nhttp://www.imdb.com/title/tt1905041/&quot; rel=&quot;nofollow&quot; target=&quot;_NEW&quot;&gt;\nhttp://www.imdb.com/title/tt1905041/&lt;/a&gt;\n\n\n\nPlot: Agent Luke Hobbs enlists Dominic Toretto and his team to bring down former Special Ops soldier Owen Shaw, leader of a unit specializing in vehicular warfare. \n\n\n\nDirector:\n Justin Lin \n\nWriters:\n Chris Morgan (screenplay), Gary Scott Thompson (characters) \n\nStars:\n Dwayne Johnson, Vin Diesel, Paul Walker\n\nGenres:\n  Action |  Crime |  Thriller \n\nCountry:\n USA \n\nLanguage:\n English \n\n\n\n\nFormat                                   : AVI\n Format/Info                              : Audio Video Interleave\n File size                                : 1.43 GiB\n Duration                                 : 2h 11mn\n Overall bit rate                         : 1 559 Kbps\n Writing application                      : VirtualDubMod 1.5.10.2 (build 2540/release)\n Writing library                          : VirtualDubMod build 2540/release\n\n Video\n ID                                       : 0\n Format                                   : MPEG-4 Visual\n Format profile                           : Advanced Simple@L5\n Format settings, BVOP                    : 2\n Format settings, QPel                    : No\n Format settings, GMC                     : No warppoints\n Format settings, Matrix                  : Default (H.263)\n Muxing mode                              : Packed bitstream\n Codec ID                                 : XVID\n Codec ID/Hint                            : XviD\n Duration                                 : 2h 11mn\n Bit rate                                 : 1 166 Kbps\n Width                                    : 720 pixels\n Height                                   : 304 pixels\n Display aspect ratio                     : 2.35:1\n Frame rate                               : 23.976 fps\n Color space                              : YUV\n Chroma subsampling                       : 4:2:0\n Bit depth                                : 8 bits\n Scan type                                : Progressive\n Compression mode                         : Lossy\n Bits/(Pixel*Frame)                       : 0.222\n Stream size                              : 1.07 GiB (75%)\n Writing library                          : XviD 64\n\n Audio\n ID                                       : 1\n Format                                   : AC-3\n Format/Info                              : Audio Coding 3\n Mode extension                           : CM (complete main)\n Format settings, Endianness              : Big\n Codec ID                                 : 2000\n Duration                                 : 2h 11mn\n Bit rate mode                            : Constant\n Bit rate                                 : 384 Kbps\n Channel(s)                               : 6 channels\n Channel positions                        : Front: L C R, Side: L R, LFE\n Sampling rate                            : 48.0 KHz\n Bit depth                                : 16 bits\n Compression mode                         : Lossy\n Stream size                              : 360 MiB (25%)\n Alignment                                : Split accross interleaves\n Interleave, duration                     : 42 ms (1.00 video frame)\n Interleave, preload duration             : 500 ms\n\n\n\nSource Used    Fast And Furious 6 2013 EXTENDED 720p BluRay DTS x264-PHD - Thanks\n\n &lt;a href=&quot;\nhttp://bayimg.com/paPFGAAEf&quot; rel=&quot;nofollow&quot; target=&quot;_NEW&quot;&gt;\nhttp://bayimg.com/paPFGAAEf&lt;/a&gt; &lt;a href=&quot;\nhttp://bayimg.com/PaPFIaAef&quot; rel=&quot;nofollow&quot; target=&quot;_NEW&quot;&gt;\nhttp://bayimg.com/PaPFIaAef&lt;/a&gt;","torrent":{"xt":"urn:btih:bbc92bf53d7c3792e65995455e2f431bb5c9c38e","amp;dn":"Fast+And+Furious+6+2013+EXTENDED+BRRiP+XViD+UNiQUE","amp;tr":["udp%3A%2F%2Ftracker.openbittorrent.com%3A80","udp%3A%2F%2Fopen.demonii.com%3A1337","udp%3A%2F%2Ftracker.coppersurfer.tk%3A6969","udp%3A%2F%2Fexodus.desync.com%3A6969"],"infoHash":"bbc92bf53d7c3792e65995455e2f431bb5c9c38e","infoHashBuffer":{"type":"Buffer","data":[187,201,43,245,61,124,55,146,230,89,149,69,94,47,67,27,181,201,195,142]},"announce":[],"urlList":[]}}